<svg width="960" height="960" viewBox="0 0 960 960" fill="none" xmlns="http://www.w3.org/2000/svg">
<g clip-path="url(#clip0_454_53138)">
<path d="M23.2857 23.2856L34.7143 34.7142" stroke="#424355" stroke-linecap="round"/>
<path d="M34.7143 23.2856L23.2857 34.7142" stroke="#424355" stroke-linecap="round"/>
<path d="M105.286 23.2856L116.714 34.7142" stroke="#424355" stroke-linecap="round"/>
<path d="M116.714 23.2856L105.286 34.7142" stroke="#424355" stroke-linecap="round"/>
<path d="M187.286 23.2856L198.714 34.7142" stroke="#424355" stroke-linecap="round"/>
<path d="M198.714 23.2856L187.286 34.7142" stroke="#424355" stroke-linecap="round"/>
<path d="M269.286 23.2856L280.714 34.7142" stroke="#424355" stroke-linecap="round"/>
<path d="M280.714 23.2856L269.286 34.7142" stroke="#424355" stroke-linecap="round"/>
<path d="M351.286 23.2856L362.714 34.7142" stroke="#424355" stroke-linecap="round"/>
<path d="M362.714 23.2856L351.286 34.7142" stroke="#424355" stroke-linecap="round"/>
<path d="M433.286 23.2856L444.714 34.7142" stroke="#424355" stroke-linecap="round"/>
<path d="M444.714 23.2856L433.286 34.7142" stroke="#424355" stroke-linecap="round"/>
<path d="M515.286 23.2856L526.714 34.7142" stroke="#424355" stroke-linecap="round"/>
<path d="M526.714 23.2856L515.286 34.7142" stroke="#424355" stroke-linecap="round"/>
<path d="M597.286 23.2856L608.714 34.7142" stroke="#424355" stroke-linecap="round"/>
<path d="M608.714 23.2856L597.286 34.7142" stroke="#424355" stroke-linecap="round"/>
<path d="M679.286 23.2856L690.714 34.7142" stroke="#424355" stroke-linecap="round"/>
<path d="M690.714 23.2856L679.286 34.7142" stroke="#424355" stroke-linecap="round"/>
<path d="M761.286 23.2856L772.714 34.7142" stroke="#424355" stroke-linecap="round"/>
<path d="M772.714 23.2856L761.286 34.7142" stroke="#424355" stroke-linecap="round"/>
<path d="M843.286 23.2856L854.714 34.7142" stroke="#424355" stroke-linecap="round"/>
<path d="M854.714 23.2856L843.286 34.7142" stroke="#424355" stroke-linecap="round"/>
<path d="M925.286 23.2856L936.714 34.7142" stroke="#424355" stroke-linecap="round"/>
<path d="M936.714 23.2856L925.286 34.7142" stroke="#424355" stroke-linecap="round"/>
<path d="M23.2857 105.286L34.7143 116.714" stroke="#424355" stroke-linecap="round"/>
<path d="M34.7143 105.286L23.2857 116.714" stroke="#424355" stroke-linecap="round"/>
<path d="M105.286 105.286L116.714 116.714" stroke="#424355" stroke-linecap="round"/>
<path d="M116.714 105.286L105.286 116.714" stroke="#424355" stroke-linecap="round"/>
<path d="M187.286 105.286L198.714 116.714" stroke="#424355" stroke-linecap="round"/>
<path d="M198.714 105.286L187.286 116.714" stroke="#424355" stroke-linecap="round"/>
<path d="M269.286 105.286L280.714 116.714" stroke="#424355" stroke-linecap="round"/>
<path d="M280.714 105.286L269.286 116.714" stroke="#424355" stroke-linecap="round"/>
<path d="M351.286 105.286L362.714 116.714" stroke="#424355" stroke-linecap="round"/>
<path d="M362.714 105.286L351.286 116.714" stroke="#424355" stroke-linecap="round"/>
<path d="M433.286 105.286L444.714 116.714" stroke="#424355" stroke-linecap="round"/>
<path d="M444.714 105.286L433.286 116.714" stroke="#424355" stroke-linecap="round"/>
<path d="M515.286 105.286L526.714 116.714" stroke="#424355" stroke-linecap="round"/>
<path d="M526.714 105.286L515.286 116.714" stroke="#424355" stroke-linecap="round"/>
<path d="M597.286 105.286L608.714 116.714" stroke="#424355" stroke-linecap="round"/>
<path d="M608.714 105.286L597.286 116.714" stroke="#424355" stroke-linecap="round"/>
<path d="M679.286 105.286L690.714 116.714" stroke="#424355" stroke-linecap="round"/>
<path d="M690.714 105.286L679.286 116.714" stroke="#424355" stroke-linecap="round"/>
<path d="M761.286 105.286L772.714 116.714" stroke="#424355" stroke-linecap="round"/>
<path d="M772.714 105.286L761.286 116.714" stroke="#424355" stroke-linecap="round"/>
<path d="M843.286 105.286L854.714 116.714" stroke="#424355" stroke-linecap="round"/>
<path d="M854.714 105.286L843.286 116.714" stroke="#424355" stroke-linecap="round"/>
<path d="M925.286 105.286L936.714 116.714" stroke="#424355" stroke-linecap="round"/>
<path d="M936.714 105.286L925.286 116.714" stroke="#424355" stroke-linecap="round"/>
<path d="M23.2857 187.286L34.7143 198.714" stroke="#424355" stroke-linecap="round"/>
<path d="M34.7143 187.286L23.2857 198.714" stroke="#424355" stroke-linecap="round"/>
<path d="M105.286 187.286L116.714 198.714" stroke="#424355" stroke-linecap="round"/>
<path d="M116.714 187.286L105.286 198.714" stroke="#424355" stroke-linecap="round"/>
<path d="M187.286 187.286L198.714 198.714" stroke="#424355" stroke-linecap="round"/>
<path d="M198.714 187.286L187.286 198.714" stroke="#424355" stroke-linecap="round"/>
<path d="M269.286 187.286L280.714 198.714" stroke="#424355" stroke-linecap="round"/>
<path d="M280.714 187.286L269.286 198.714" stroke="#424355" stroke-linecap="round"/>
<path d="M351.286 187.286L362.714 198.714" stroke="#424355" stroke-linecap="round"/>
<path d="M362.714 187.286L351.286 198.714" stroke="#424355" stroke-linecap="round"/>
<path d="M433.286 187.286L444.714 198.714" stroke="#424355" stroke-linecap="round"/>
<path d="M444.714 187.286L433.286 198.714" stroke="#424355" stroke-linecap="round"/>
<path d="M515.286 187.286L526.714 198.714" stroke="#424355" stroke-linecap="round"/>
<path d="M526.714 187.286L515.286 198.714" stroke="#424355" stroke-linecap="round"/>
<path d="M597.286 187.286L608.714 198.714" stroke="#424355" stroke-linecap="round"/>
<path d="M608.714 187.286L597.286 198.714" stroke="#424355" stroke-linecap="round"/>
<path d="M679.286 187.286L690.714 198.714" stroke="#424355" stroke-linecap="round"/>
<path d="M690.714 187.286L679.286 198.714" stroke="#424355" stroke-linecap="round"/>
<path d="M761.286 187.286L772.714 198.714" stroke="#424355" stroke-linecap="round"/>
<path d="M772.714 187.286L761.286 198.714" stroke="#424355" stroke-linecap="round"/>
<path d="M843.286 187.286L854.714 198.714" stroke="#424355" stroke-linecap="round"/>
<path d="M854.714 187.286L843.286 198.714" stroke="#424355" stroke-linecap="round"/>
<path d="M925.286 187.286L936.714 198.714" stroke="#424355" stroke-linecap="round"/>
<path d="M936.714 187.286L925.286 198.714" stroke="#424355" stroke-linecap="round"/>
<path d="M23.2857 269.286L34.7143 280.714" stroke="#424355" stroke-linecap="round"/>
<path d="M34.7143 269.286L23.2857 280.714" stroke="#424355" stroke-linecap="round"/>
<path d="M105.286 269.286L116.714 280.714" stroke="#424355" stroke-linecap="round"/>
<path d="M116.714 269.286L105.286 280.714" stroke="#424355" stroke-linecap="round"/>
<path d="M187.286 269.286L198.714 280.714" stroke="#424355" stroke-linecap="round"/>
<path d="M198.714 269.286L187.286 280.714" stroke="#424355" stroke-linecap="round"/>
<path d="M269.286 269.286L280.714 280.714" stroke="#424355" stroke-linecap="round"/>
<path d="M280.714 269.286L269.286 280.714" stroke="#424355" stroke-linecap="round"/>
<path d="M351.286 269.286L362.714 280.714" stroke="#424355" stroke-linecap="round"/>
<path d="M362.714 269.286L351.286 280.714" stroke="#424355" stroke-linecap="round"/>
<path d="M433.286 269.286L444.714 280.714" stroke="#424355" stroke-linecap="round"/>
<path d="M444.714 269.286L433.286 280.714" stroke="#424355" stroke-linecap="round"/>
<path d="M515.286 269.286L526.714 280.714" stroke="#424355" stroke-linecap="round"/>
<path d="M526.714 269.286L515.286 280.714" stroke="#424355" stroke-linecap="round"/>
<path d="M597.286 269.286L608.714 280.714" stroke="#424355" stroke-linecap="round"/>
<path d="M608.714 269.286L597.286 280.714" stroke="#424355" stroke-linecap="round"/>
<path d="M679.286 269.286L690.714 280.714" stroke="#424355" stroke-linecap="round"/>
<path d="M690.714 269.286L679.286 280.714" stroke="#424355" stroke-linecap="round"/>
<path d="M761.286 269.286L772.714 280.714" stroke="#424355" stroke-linecap="round"/>
<path d="M772.714 269.286L761.286 280.714" stroke="#424355" stroke-linecap="round"/>
<path d="M843.286 269.286L854.714 280.714" stroke="#424355" stroke-linecap="round"/>
<path d="M854.714 269.286L843.286 280.714" stroke="#424355" stroke-linecap="round"/>
<path d="M925.286 269.286L936.714 280.714" stroke="#424355" stroke-linecap="round"/>
<path d="M936.714 269.286L925.286 280.714" stroke="#424355" stroke-linecap="round"/>
<path d="M23.2857 351.286L34.7143 362.714" stroke="#424355" stroke-linecap="round"/>
<path d="M34.7143 351.286L23.2857 362.714" stroke="#424355" stroke-linecap="round"/>
<path d="M105.286 351.286L116.714 362.714" stroke="#424355" stroke-linecap="round"/>
<path d="M116.714 351.286L105.286 362.714" stroke="#424355" stroke-linecap="round"/>
<path d="M187.286 351.286L198.714 362.714" stroke="#424355" stroke-linecap="round"/>
<path d="M198.714 351.286L187.286 362.714" stroke="#424355" stroke-linecap="round"/>
<path d="M269.286 351.286L280.714 362.714" stroke="#424355" stroke-linecap="round"/>
<path d="M280.714 351.286L269.286 362.714" stroke="#424355" stroke-linecap="round"/>
<path d="M351.286 351.286L362.714 362.714" stroke="#424355" stroke-linecap="round"/>
<path d="M362.714 351.286L351.286 362.714" stroke="#424355" stroke-linecap="round"/>
<path d="M433.286 351.286L444.714 362.714" stroke="#424355" stroke-linecap="round"/>
<path d="M444.714 351.286L433.286 362.714" stroke="#424355" stroke-linecap="round"/>
<path d="M515.286 351.286L526.714 362.714" stroke="#424355" stroke-linecap="round"/>
<path d="M526.714 351.286L515.286 362.714" stroke="#424355" stroke-linecap="round"/>
<path d="M597.286 351.286L608.714 362.714" stroke="#424355" stroke-linecap="round"/>
<path d="M608.714 351.286L597.286 362.714" stroke="#424355" stroke-linecap="round"/>
<path d="M679.286 351.286L690.714 362.714" stroke="#424355" stroke-linecap="round"/>
<path d="M690.714 351.286L679.286 362.714" stroke="#424355" stroke-linecap="round"/>
<path d="M761.286 351.286L772.714 362.714" stroke="#424355" stroke-linecap="round"/>
<path d="M772.714 351.286L761.286 362.714" stroke="#424355" stroke-linecap="round"/>
<path d="M843.286 351.286L854.714 362.714" stroke="#424355" stroke-linecap="round"/>
<path d="M854.714 351.286L843.286 362.714" stroke="#424355" stroke-linecap="round"/>
<path d="M925.286 351.286L936.714 362.714" stroke="#424355" stroke-linecap="round"/>
<path d="M936.714 351.286L925.286 362.714" stroke="#424355" stroke-linecap="round"/>
<path d="M23.2857 433.286L34.7143 444.714" stroke="#424355" stroke-linecap="round"/>
<path d="M34.7143 433.286L23.2857 444.714" stroke="#424355" stroke-linecap="round"/>
<path d="M105.286 433.286L116.714 444.714" stroke="#424355" stroke-linecap="round"/>
<path d="M116.714 433.286L105.286 444.714" stroke="#424355" stroke-linecap="round"/>
<path d="M187.286 433.286L198.714 444.714" stroke="#424355" stroke-linecap="round"/>
<path d="M198.714 433.286L187.286 444.714" stroke="#424355" stroke-linecap="round"/>
<path d="M269.286 433.286L280.714 444.714" stroke="#424355" stroke-linecap="round"/>
<path d="M280.714 433.286L269.286 444.714" stroke="#424355" stroke-linecap="round"/>
<path d="M351.286 433.286L362.714 444.714" stroke="#424355" stroke-linecap="round"/>
<path d="M362.714 433.286L351.286 444.714" stroke="#424355" stroke-linecap="round"/>
<path d="M433.286 433.286L444.714 444.714" stroke="#424355" stroke-linecap="round"/>
<path d="M444.714 433.286L433.286 444.714" stroke="#424355" stroke-linecap="round"/>
<path d="M515.286 433.286L526.714 444.714" stroke="#424355" stroke-linecap="round"/>
<path d="M526.714 433.286L515.286 444.714" stroke="#424355" stroke-linecap="round"/>
<path d="M597.286 433.286L608.714 444.714" stroke="#424355" stroke-linecap="round"/>
<path d="M608.714 433.286L597.286 444.714" stroke="#424355" stroke-linecap="round"/>
<path d="M679.286 433.286L690.714 444.714" stroke="#424355" stroke-linecap="round"/>
<path d="M690.714 433.286L679.286 444.714" stroke="#424355" stroke-linecap="round"/>
<path d="M761.286 433.286L772.714 444.714" stroke="#424355" stroke-linecap="round"/>
<path d="M772.714 433.286L761.286 444.714" stroke="#424355" stroke-linecap="round"/>
<path d="M843.286 433.286L854.714 444.714" stroke="#424355" stroke-linecap="round"/>
<path d="M854.714 433.286L843.286 444.714" stroke="#424355" stroke-linecap="round"/>
<path d="M925.286 433.286L936.714 444.714" stroke="#424355" stroke-linecap="round"/>
<path d="M936.714 433.286L925.286 444.714" stroke="#424355" stroke-linecap="round"/>
<path d="M23.2857 515.286L34.7143 526.714" stroke="#424355" stroke-linecap="round"/>
<path d="M34.7143 515.286L23.2857 526.714" stroke="#424355" stroke-linecap="round"/>
<path d="M105.286 515.286L116.714 526.714" stroke="#424355" stroke-linecap="round"/>
<path d="M116.714 515.286L105.286 526.714" stroke="#424355" stroke-linecap="round"/>
<path d="M187.286 515.286L198.714 526.714" stroke="#424355" stroke-linecap="round"/>
<path d="M198.714 515.286L187.286 526.714" stroke="#424355" stroke-linecap="round"/>
<path d="M269.286 515.286L280.714 526.714" stroke="#424355" stroke-linecap="round"/>
<path d="M280.714 515.286L269.286 526.714" stroke="#424355" stroke-linecap="round"/>
<path d="M351.286 515.286L362.714 526.714" stroke="#424355" stroke-linecap="round"/>
<path d="M362.714 515.286L351.286 526.714" stroke="#424355" stroke-linecap="round"/>
<path d="M433.286 515.286L444.714 526.714" stroke="#424355" stroke-linecap="round"/>
<path d="M444.714 515.286L433.286 526.714" stroke="#424355" stroke-linecap="round"/>
<path d="M515.286 515.286L526.714 526.714" stroke="#424355" stroke-linecap="round"/>
<path d="M526.714 515.286L515.286 526.714" stroke="#424355" stroke-linecap="round"/>
<path d="M597.286 515.286L608.714 526.714" stroke="#424355" stroke-linecap="round"/>
<path d="M608.714 515.286L597.286 526.714" stroke="#424355" stroke-linecap="round"/>
<path d="M679.286 515.286L690.714 526.714" stroke="#424355" stroke-linecap="round"/>
<path d="M690.714 515.286L679.286 526.714" stroke="#424355" stroke-linecap="round"/>
<path d="M761.286 515.286L772.714 526.714" stroke="#424355" stroke-linecap="round"/>
<path d="M772.714 515.286L761.286 526.714" stroke="#424355" stroke-linecap="round"/>
<path d="M843.286 515.286L854.714 526.714" stroke="#424355" stroke-linecap="round"/>
<path d="M854.714 515.286L843.286 526.714" stroke="#424355" stroke-linecap="round"/>
<path d="M925.286 515.286L936.714 526.714" stroke="#424355" stroke-linecap="round"/>
<path d="M936.714 515.286L925.286 526.714" stroke="#424355" stroke-linecap="round"/>
<path d="M23.2857 597.286L34.7143 608.714" stroke="#424355" stroke-linecap="round"/>
<path d="M34.7143 597.286L23.2857 608.714" stroke="#424355" stroke-linecap="round"/>
<path d="M105.286 597.286L116.714 608.714" stroke="#424355" stroke-linecap="round"/>
<path d="M116.714 597.286L105.286 608.714" stroke="#424355" stroke-linecap="round"/>
<path d="M187.286 597.286L198.714 608.714" stroke="#424355" stroke-linecap="round"/>
<path d="M198.714 597.286L187.286 608.714" stroke="#424355" stroke-linecap="round"/>
<path d="M269.286 597.286L280.714 608.714" stroke="#424355" stroke-linecap="round"/>
<path d="M280.714 597.286L269.286 608.714" stroke="#424355" stroke-linecap="round"/>
<path d="M351.286 597.286L362.714 608.714" stroke="#424355" stroke-linecap="round"/>
<path d="M362.714 597.286L351.286 608.714" stroke="#424355" stroke-linecap="round"/>
<path d="M433.286 597.286L444.714 608.714" stroke="#424355" stroke-linecap="round"/>
<path d="M444.714 597.286L433.286 608.714" stroke="#424355" stroke-linecap="round"/>
<path d="M515.286 597.286L526.714 608.714" stroke="#424355" stroke-linecap="round"/>
<path d="M526.714 597.286L515.286 608.714" stroke="#424355" stroke-linecap="round"/>
<path d="M597.286 597.286L608.714 608.714" stroke="#424355" stroke-linecap="round"/>
<path d="M608.714 597.286L597.286 608.714" stroke="#424355" stroke-linecap="round"/>
<path d="M679.286 597.286L690.714 608.714" stroke="#424355" stroke-linecap="round"/>
<path d="M690.714 597.286L679.286 608.714" stroke="#424355" stroke-linecap="round"/>
<path d="M761.286 597.286L772.714 608.714" stroke="#424355" stroke-linecap="round"/>
<path d="M772.714 597.286L761.286 608.714" stroke="#424355" stroke-linecap="round"/>
<path d="M843.286 597.286L854.714 608.714" stroke="#424355" stroke-linecap="round"/>
<path d="M854.714 597.286L843.286 608.714" stroke="#424355" stroke-linecap="round"/>
<path d="M925.286 597.286L936.714 608.714" stroke="#424355" stroke-linecap="round"/>
<path d="M936.714 597.286L925.286 608.714" stroke="#424355" stroke-linecap="round"/>
<path d="M23.2857 679.286L34.7143 690.714" stroke="#424355" stroke-linecap="round"/>
<path d="M34.7143 679.286L23.2857 690.714" stroke="#424355" stroke-linecap="round"/>
<path d="M105.286 679.286L116.714 690.714" stroke="#424355" stroke-linecap="round"/>
<path d="M116.714 679.286L105.286 690.714" stroke="#424355" stroke-linecap="round"/>
<path d="M187.286 679.286L198.714 690.714" stroke="#424355" stroke-linecap="round"/>
<path d="M198.714 679.286L187.286 690.714" stroke="#424355" stroke-linecap="round"/>
<path d="M269.286 679.286L280.714 690.714" stroke="#424355" stroke-linecap="round"/>
<path d="M280.714 679.286L269.286 690.714" stroke="#424355" stroke-linecap="round"/>
<path d="M351.286 679.286L362.714 690.714" stroke="#424355" stroke-linecap="round"/>
<path d="M362.714 679.286L351.286 690.714" stroke="#424355" stroke-linecap="round"/>
<path d="M433.286 679.286L444.714 690.714" stroke="#424355" stroke-linecap="round"/>
<path d="M444.714 679.286L433.286 690.714" stroke="#424355" stroke-linecap="round"/>
<path d="M515.286 679.286L526.714 690.714" stroke="#424355" stroke-linecap="round"/>
<path d="M526.714 679.286L515.286 690.714" stroke="#424355" stroke-linecap="round"/>
<path d="M597.286 679.286L608.714 690.714" stroke="#424355" stroke-linecap="round"/>
<path d="M608.714 679.286L597.286 690.714" stroke="#424355" stroke-linecap="round"/>
<path d="M679.286 679.286L690.714 690.714" stroke="#424355" stroke-linecap="round"/>
<path d="M690.714 679.286L679.286 690.714" stroke="#424355" stroke-linecap="round"/>
<path d="M761.286 679.286L772.714 690.714" stroke="#424355" stroke-linecap="round"/>
<path d="M772.714 679.286L761.286 690.714" stroke="#424355" stroke-linecap="round"/>
<path d="M843.286 679.286L854.714 690.714" stroke="#424355" stroke-linecap="round"/>
<path d="M854.714 679.286L843.286 690.714" stroke="#424355" stroke-linecap="round"/>
<path d="M925.286 679.286L936.714 690.714" stroke="#424355" stroke-linecap="round"/>
<path d="M936.714 679.286L925.286 690.714" stroke="#424355" stroke-linecap="round"/>
<path d="M23.2857 761.286L34.7143 772.714" stroke="#424355" stroke-linecap="round"/>
<path d="M34.7143 761.286L23.2857 772.714" stroke="#424355" stroke-linecap="round"/>
<path d="M105.286 761.286L116.714 772.714" stroke="#424355" stroke-linecap="round"/>
<path d="M116.714 761.286L105.286 772.714" stroke="#424355" stroke-linecap="round"/>
<path d="M187.286 761.286L198.714 772.714" stroke="#424355" stroke-linecap="round"/>
<path d="M198.714 761.286L187.286 772.714" stroke="#424355" stroke-linecap="round"/>
<path d="M269.286 761.286L280.714 772.714" stroke="#424355" stroke-linecap="round"/>
<path d="M280.714 761.286L269.286 772.714" stroke="#424355" stroke-linecap="round"/>
<path d="M351.286 761.286L362.714 772.714" stroke="#424355" stroke-linecap="round"/>
<path d="M362.714 761.286L351.286 772.714" stroke="#424355" stroke-linecap="round"/>
<path d="M433.286 761.286L444.714 772.714" stroke="#424355" stroke-linecap="round"/>
<path d="M444.714 761.286L433.286 772.714" stroke="#424355" stroke-linecap="round"/>
<path d="M515.286 761.286L526.714 772.714" stroke="#424355" stroke-linecap="round"/>
<path d="M526.714 761.286L515.286 772.714" stroke="#424355" stroke-linecap="round"/>
<path d="M597.286 761.286L608.714 772.714" stroke="#424355" stroke-linecap="round"/>
<path d="M608.714 761.286L597.286 772.714" stroke="#424355" stroke-linecap="round"/>
<path d="M679.286 761.286L690.714 772.714" stroke="#424355" stroke-linecap="round"/>
<path d="M690.714 761.286L679.286 772.714" stroke="#424355" stroke-linecap="round"/>
<path d="M761.286 761.286L772.714 772.714" stroke="#424355" stroke-linecap="round"/>
<path d="M772.714 761.286L761.286 772.714" stroke="#424355" stroke-linecap="round"/>
<path d="M843.286 761.286L854.714 772.714" stroke="#424355" stroke-linecap="round"/>
<path d="M854.714 761.286L843.286 772.714" stroke="#424355" stroke-linecap="round"/>
<path d="M925.286 761.286L936.714 772.714" stroke="#424355" stroke-linecap="round"/>
<path d="M936.714 761.286L925.286 772.714" stroke="#424355" stroke-linecap="round"/>
<path d="M23.2857 843.286L34.7143 854.714" stroke="#424355" stroke-linecap="round"/>
<path d="M34.7143 843.286L23.2857 854.714" stroke="#424355" stroke-linecap="round"/>
<path d="M105.286 843.286L116.714 854.714" stroke="#424355" stroke-linecap="round"/>
<path d="M116.714 843.286L105.286 854.714" stroke="#424355" stroke-linecap="round"/>
<path d="M187.286 843.286L198.714 854.714" stroke="#424355" stroke-linecap="round"/>
<path d="M198.714 843.286L187.286 854.714" stroke="#424355" stroke-linecap="round"/>
<path d="M269.286 843.286L280.714 854.714" stroke="#424355" stroke-linecap="round"/>
<path d="M280.714 843.286L269.286 854.714" stroke="#424355" stroke-linecap="round"/>
<path d="M351.286 843.286L362.714 854.714" stroke="#424355" stroke-linecap="round"/>
<path d="M362.714 843.286L351.286 854.714" stroke="#424355" stroke-linecap="round"/>
<path d="M433.286 843.286L444.714 854.714" stroke="#424355" stroke-linecap="round"/>
<path d="M444.714 843.286L433.286 854.714" stroke="#424355" stroke-linecap="round"/>
<path d="M515.286 843.286L526.714 854.714" stroke="#424355" stroke-linecap="round"/>
<path d="M526.714 843.286L515.286 854.714" stroke="#424355" stroke-linecap="round"/>
<path d="M597.286 843.286L608.714 854.714" stroke="#424355" stroke-linecap="round"/>
<path d="M608.714 843.286L597.286 854.714" stroke="#424355" stroke-linecap="round"/>
<path d="M679.286 843.286L690.714 854.714" stroke="#424355" stroke-linecap="round"/>
<path d="M690.714 843.286L679.286 854.714" stroke="#424355" stroke-linecap="round"/>
<path d="M761.286 843.286L772.714 854.714" stroke="#424355" stroke-linecap="round"/>
<path d="M772.714 843.286L761.286 854.714" stroke="#424355" stroke-linecap="round"/>
<path d="M843.286 843.286L854.714 854.714" stroke="#424355" stroke-linecap="round"/>
<path d="M854.714 843.286L843.286 854.714" stroke="#424355" stroke-linecap="round"/>
<path d="M925.286 843.286L936.714 854.714" stroke="#424355" stroke-linecap="round"/>
<path d="M936.714 843.286L925.286 854.714" stroke="#424355" stroke-linecap="round"/>
<path d="M23.2857 925.286L34.7143 936.714" stroke="#424355" stroke-linecap="round"/>
<path d="M34.7143 925.286L23.2857 936.714" stroke="#424355" stroke-linecap="round"/>
<path d="M105.286 925.286L116.714 936.714" stroke="#424355" stroke-linecap="round"/>
<path d="M116.714 925.286L105.286 936.714" stroke="#424355" stroke-linecap="round"/>
<path d="M187.286 925.286L198.714 936.714" stroke="#424355" stroke-linecap="round"/>
<path d="M198.714 925.286L187.286 936.714" stroke="#424355" stroke-linecap="round"/>
<path d="M269.286 925.286L280.714 936.714" stroke="#424355" stroke-linecap="round"/>
<path d="M280.714 925.286L269.286 936.714" stroke="#424355" stroke-linecap="round"/>
<path d="M351.286 925.286L362.714 936.714" stroke="#424355" stroke-linecap="round"/>
<path d="M362.714 925.286L351.286 936.714" stroke="#424355" stroke-linecap="round"/>
<path d="M433.286 925.286L444.714 936.714" stroke="#424355" stroke-linecap="round"/>
<path d="M444.714 925.286L433.286 936.714" stroke="#424355" stroke-linecap="round"/>
<path d="M515.286 925.286L526.714 936.714" stroke="#424355" stroke-linecap="round"/>
<path d="M526.714 925.286L515.286 936.714" stroke="#424355" stroke-linecap="round"/>
<path d="M597.286 925.286L608.714 936.714" stroke="#424355" stroke-linecap="round"/>
<path d="M608.714 925.286L597.286 936.714" stroke="#424355" stroke-linecap="round"/>
<path d="M679.286 925.286L690.714 936.714" stroke="#424355" stroke-linecap="round"/>
<path d="M690.714 925.286L679.286 936.714" stroke="#424355" stroke-linecap="round"/>
<path d="M761.286 925.286L772.714 936.714" stroke="#424355" stroke-linecap="round"/>
<path d="M772.714 925.286L761.286 936.714" stroke="#424355" stroke-linecap="round"/>
<path d="M843.286 925.286L854.714 936.714" stroke="#424355" stroke-linecap="round"/>
<path d="M854.714 925.286L843.286 936.714" stroke="#424355" stroke-linecap="round"/>
<path d="M925.286 925.286L936.714 936.714" stroke="#424355" stroke-linecap="round"/>
<path d="M936.714 925.286L925.286 936.714" stroke="#424355" stroke-linecap="round"/>
</g>
<defs>
<clipPath id="clip0_454_53138">
<rect width="960" height="960" fill="white"/>
</clipPath>
</defs>
</svg>
